<svg width="326" height="53" viewBox="0 0 326 53" fill="none" xmlns="http://www.w3.org/2000/svg">
  <path d="M324.733 42.4168C323.495 42.1402 289.217 39.3048 255.247 40.2251C221.277 40.5312 187.617 44.5928 187.617 43.9262C181.743 43.3624 177.736 29.8168 177.512 28.3357C177.356 27.0454 179.049 19.0846 182.011 14.0943L80 20.5147C91.7955 10.8932 108.152 5.17669 125.948 2.34188C155.563 -2.28468 172.032 0.8923 181.77 3.75688C186.812 5.28012 187.363 7.90596 186.726 10.1102C188.908 10.4822 221.357 6.33491 254.226 6.93206C288.261 6.79856 322.736 11.7526 324.505 13.9665C328.04 16.6503 325.101 18.3792 317.856 17.8621C316.759 17.7931 315.65 17.7483 314.536 17.728C303.459 17.0839 276.474 17.8335 277.189 21.8786C277.887 25.2071 306.331 31.6074 317.851 35.8064C324.911 38.1877 327.916 41.0159 324.733 42.4168Z" fill="#60A9E3"/>
  <path d="M267 20.4099C267 39.5285 217.703 43.2217 132.159 47.5094C123.999 47.9006 116.397 48.1649 109.312 48.3231C73.8746 49.5671 38.4373 49.3876 3 45.2815V10.5295C56.6431 18.7153 110.285 15.051 163.928 10.9733V11.0144C229.787 6.39129 267 5.4163 267 20.4099Z" fill="#ACD4F4"/>
  <path d="M136.496 44.6582C148.793 48.4746 146.183 48.6254 154.368 49.5832C171.269 52.2489 139.369 54.0139 125.008 52.3557C110.647 50.9714 104.149 48.2631 110.494 44.4899C116.839 40.6588 127.083 41.7879 136.496 44.6582Z" fill="#60A9E3"/>
  <path d="M2.55107 48.7027C1.87448 48.7027 1.22561 48.4055 0.747191 47.8765C0.268773 47.3475 0 46.6301 0 45.882V10.9377C0 9.37981 1.14207 8.11707 2.55107 8.11707C3.96007 8.11707 5.10214 9.37981 5.10214 10.9377V45.882C5.10214 47.4396 3.9598 48.7027 2.55107 48.7027Z" fill="#60A9E3"/>
  </svg>
  