<svg viewBox="0 0 60 60" fill="none" xmlns="http://www.w3.org/2000/svg">
<path d="M3.75 47.6428H33.75V45.991H3.75V47.6428Z" fill="currentColor"/>
<path d="M9.375 54.25H39.375V52.5982H9.375V54.25Z" fill="currentColor"/>
<path d="M45 45.9911V14.6072H43.125V45.9911H45Z" fill="currentColor"/>
<path d="M11.25 45.9911L11.25 14.6072H9.375L9.375 45.9911H11.25Z" fill="currentColor"/>
<path d="M45 45.9911H43.125V49.2947C43.125 50.1708 42.7299 51.0111 42.0266 51.6306C41.3234 52.2502 40.3696 52.5982 39.375 52.5982H37.5V54.25H39.375C40.8668 54.25 42.2976 53.7279 43.3525 52.7986C44.4074 51.8693 45 50.6089 45 49.2947V45.9911Z" fill="currentColor"/>
<path d="M31.875 47.6428H33.75V49.2946C33.75 50.1708 34.1451 51.011 34.8484 51.6306C35.5516 52.2501 36.5054 52.5982 37.5 52.5982H39.375V54.25H37.5C36.0082 54.25 34.5774 53.7279 33.5225 52.7986C32.4676 51.8693 31.875 50.6089 31.875 49.2946V47.6428Z" fill="currentColor"/>
<path d="M3.75 47.6428H5.625V49.2946C5.625 50.1708 6.02009 51.011 6.72335 51.6306C7.42661 52.2501 8.38044 52.5982 9.375 52.5982H11.25V54.25H9.375C7.88316 54.25 6.45242 53.7279 5.39752 52.7986C4.34263 51.8693 3.75 50.6089 3.75 49.2946V47.6428Z" fill="currentColor"/>
<path d="M56.25 14.6072H45V16.259H56.25V14.6072Z" fill="currentColor"/>
<path d="M50.625 8H15V9.65179H50.625V8Z" fill="currentColor"/>
<path d="M9.375 14.6071H11.25V12.9554C11.25 12.0792 11.6451 11.2389 12.3483 10.6194C13.0516 9.99984 14.0054 9.65179 15 9.65179H16.875V8H15C13.5082 8 12.0774 8.52208 11.0225 9.45139C9.96763 10.3807 9.375 11.6411 9.375 12.9554V14.6071Z" fill="currentColor"/>
<path d="M43.125 14.6071H45V12.9554C45 12.0792 45.3951 11.2389 46.0984 10.6194C46.8016 9.99984 47.7554 9.65179 48.75 9.65179H50.625V8H48.75C47.2582 8 45.8274 8.52208 44.7725 9.45139C43.7176 10.3807 43.125 11.6411 43.125 12.9554V14.6071Z" fill="currentColor"/>
<path d="M56.25 14.6071H54.375V12.9554C54.375 12.0792 53.9799 11.2389 53.2766 10.6194C52.5734 9.99984 51.6196 9.65179 50.625 9.65179H48.75V8H50.625C52.1168 8 53.5476 8.52208 54.6025 9.45139C55.6574 10.3807 56.25 11.6411 56.25 12.9554V14.6071Z" fill="currentColor"/>
<path d="M16.0339 19.0679C16.0339 18.7981 16.1411 18.5395 16.3318 18.3488C16.5225 18.158 16.7812 18.0509 17.0509 18.0509H35.356C35.6257 18.0509 35.8843 18.158 36.0751 18.3488C36.2658 18.5395 36.3729 18.7981 36.3729 19.0679C36.3729 19.3376 36.2658 19.5962 36.0751 19.7869C35.8843 19.9777 35.6257 20.0848 35.356 20.0848H17.0509C16.7812 20.0848 16.5225 19.9777 16.3318 19.7869C16.1411 19.5962 16.0339 19.3376 16.0339 19.0679ZM17.0509 28.2204H35.356C35.6257 28.2204 35.8843 28.1133 36.0751 27.9225C36.2658 27.7318 36.3729 27.4732 36.3729 27.2034C36.3729 26.9337 36.2658 26.6751 36.0751 26.4844C35.8843 26.2936 35.6257 26.1865 35.356 26.1865H17.0509C16.7812 26.1865 16.5225 26.2936 16.3318 26.4844C16.1411 26.6751 16.0339 26.9337 16.0339 27.2034C16.0339 27.4732 16.1411 27.7318 16.3318 27.9225C16.5225 28.1133 16.7812 28.2204 17.0509 28.2204ZM17.0509 36.356H26.2034C26.4731 36.356 26.7318 36.2488 26.9225 36.0581C27.1132 35.8674 27.2204 35.6087 27.2204 35.339C27.2204 35.0693 27.1132 34.8107 26.9225 34.6199C26.7318 34.4292 26.4731 34.3221 26.2034 34.3221H17.0509C16.7812 34.3221 16.5225 34.4292 16.3318 34.6199C16.1411 34.8107 16.0339 35.0693 16.0339 35.339C16.0339 35.6087 16.1411 35.8674 16.3318 36.0581C16.5225 36.2488 16.7812 36.356 17.0509 36.356Z" fill="currentColor"/>
</svg>
